<?xml version="1.0" encoding="UTF-8" standalone="no"?>
<!-- Created with Inkscape (http://www.inkscape.org/) -->

<svg
   width="210mm"
   height="297mm"
   viewBox="0 0 210 297"
   version="1.1"
   id="svg1"
   xml:space="preserve"
   inkscape:version="1.4 (e7c3feb1, 2024-10-09)"
   sodipodi:docname="EffectiveInit.svg"
   xmlns:inkscape="http://www.inkscape.org/namespaces/inkscape"
   xmlns:sodipodi="http://sodipodi.sourceforge.net/DTD/sodipodi-0.dtd"
   xmlns="http://www.w3.org/2000/svg"
   xmlns:svg="http://www.w3.org/2000/svg"><sodipodi:namedview
     id="namedview1"
     pagecolor="#ffffff"
     bordercolor="#666666"
     borderopacity="1.0"
     inkscape:showpageshadow="2"
     inkscape:pageopacity="0.0"
     inkscape:pagecheckerboard="0"
     inkscape:deskcolor="#d1d1d1"
     inkscape:document-units="mm"
     inkscape:zoom="0.37059484"
     inkscape:cx="462.76953"
     inkscape:cy="499.19746"
     inkscape:window-width="1296"
     inkscape:window-height="771"
     inkscape:window-x="48"
     inkscape:window-y="110"
     inkscape:window-maximized="0"
     inkscape:current-layer="layer1" /><defs
     id="defs1" /><g
     inkscape:label="Layer 1"
     inkscape:groupmode="layer"
     id="layer1"><path
       style="fill:#000000;stroke-width:1.45873"
       d="m 27.209121,229.52695 c -4.89647,-0.9616 -9.955313,-4.92022 -12.074237,-9.44825 -2.289266,-4.89206 -2.319331,-9.79934 -0.09136,-14.9119 1.001564,-2.29832 3.903168,-5.27963 52.70222,-54.15018 l 51.642306,-51.717974 -4.25262,-3.044559 -4.25259,-3.044554 -9.00044,8.926717 c -7.79894,7.73505 -9.338149,9.08474 -11.530269,10.11056 -6.935958,3.24573 -14.463343,1.98547 -19.756495,-3.30768 -5.303164,-5.30316 -6.553938,-12.819391 -3.292923,-19.788025 1.080712,-2.309428 2.572906,-3.943538 15.171063,-16.613929 7.68485,-7.728907 14.987705,-14.810723 16.228557,-15.73735 5.191737,-3.877034 13.030637,-4.33103 18.655347,-1.080442 0.88751,0.512915 6.50111,4.319021 12.47463,8.458029 5.97353,4.138993 10.93316,7.525444 11.02142,7.525444 0.0882,0 0.0591,-1.259173 -0.0646,-2.798174 -1.00969,-12.549382 10.06885,-24.205269 23.00632,-24.205269 12.46493,0 23.1439,10.678967 23.1439,23.143898 0,10.63265 -7.92013,20.393302 -18.31946,22.576668 -1.48592,0.311977 -3.43553,0.570245 -4.33244,0.573921 l -1.63076,0.0073 0.45446,1.06137 c 0.29789,0.695711 0.50515,4.684835 0.60161,11.578649 l 0.14717,10.51729 h 12.07266 c 6.63997,0 13.00744,0.17728 14.14993,0.39394 9.06121,1.71843 15.40737,10.60692 13.93164,19.51276 -1.21451,7.32926 -6.75998,13.07521 -13.93164,14.4353 -2.96711,0.56269 -44.53349,0.52718 -47.20612,-0.0404 -4.70409,-0.99888 -9.31388,-4.39731 -11.48168,-8.46452 l -1.27166,-2.38589 -2.73994,2.73993 -2.73992,2.73991 12.22839,12.28378 c 10.93023,10.97977 12.3552,12.55483 13.42316,14.83701 2.40482,5.13899 2.40307,10.11556 -0.006,15.28334 -1.10726,2.3759 -2.69939,4.07443 -20.57442,21.94946 -17.87504,17.87503 -19.57357,19.46715 -21.94947,20.57443 -6.99619,3.26054 -14.496577,2.01386 -19.801818,-3.29139 -5.300593,-5.30059 -6.553806,-12.81967 -3.296731,-19.77989 1.067962,-2.2822 2.492958,-3.85727 13.423918,-14.83775 l 12.229111,-12.28454 -5.09923,-5.09925 -5.09924,-5.09923 -29.819345,29.74129 c -27.552039,27.47994 -29.999335,29.81992 -32.186593,30.77524 -3.87442,1.69222 -7.195946,2.11415 -10.906387,1.38546 z m 5.86317,-11.7771 c 0.679353,-0.33875 14.208906,-13.57256 30.065672,-29.40846 l 28.830485,-28.79254 -3.036352,-3.16274 c -1.670001,-1.73951 -3.315576,-3.70268 -3.656834,-4.3626 -0.341268,-0.65994 -0.746712,-1.19988 -0.900994,-1.19988 -0.582813,0 -58.318941,58.14253 -58.906777,59.32141 -2.351712,4.71629 2.888521,9.95652 7.6048,7.60481 z m 69.471899,-2.4e-4 c 1.70376,-0.84987 36.42412,-35.515 37.34798,-37.28855 0.9078,-1.74275 0.94993,-3.40912 0.12778,-5.05197 -0.33999,-0.67934 -6.92483,-7.5745 -14.63296,-15.32255 -15.14261,-15.22103 -15.23401,-15.338 -14.40122,-18.42933 0.31143,-1.156 2.38328,-3.45349 10.29318,-11.41401 5.4468,-5.48167 10.3723,-10.21444 10.94551,-10.51728 1.59917,-0.84483 4.22171,-0.69641 5.75141,0.3255 2.18341,1.45861 2.661,2.91427 2.66168,8.11273 7.2e-4,5.45143 0.61265,7.1162 3.07805,8.37396 1.47257,0.75124 2.23711,0.7771 22.97451,0.7771 20.7374,0 21.50194,-0.0259 22.9745,-0.7771 1.71222,-0.8735 3.07746,-3.09707 3.07746,-5.01222 0,-1.91516 -1.36524,-4.13872 -3.07746,-5.01222 -1.4527,-0.74112 -2.24995,-0.7771 -17.21374,-0.7771 -15.26649,0 -15.72979,-0.022 -17.14487,-0.81742 -0.79992,-0.44958 -1.82223,-1.47188 -2.27179,-2.27179 -0.78619,-1.39882 -0.81742,-1.93571 -0.81742,-14.05425 0,-13.801981 -0.0684,-14.291428 -2.25401,-16.13049 -1.43682,-1.209022 -3.08898,-1.62966 -5.01281,-1.276284 -1.23578,0.226979 -4.47121,3.306746 -25.27921,24.062984 -13.26297,13.23 -24.191861,24.43873 -24.604616,25.23464 -0.942679,1.81775 -0.941722,3.42684 0.0031,5.24116 0.41015,0.78756 6.847676,7.51073 14.305626,14.94037 7.45792,7.42963 13.80901,13.97742 14.11353,14.55063 0.3045,0.57322 0.55366,1.75418 0.55366,2.62436 0,0.87019 -0.24916,2.05116 -0.55366,2.62436 -0.30452,0.57322 -6.65561,7.12101 -14.11353,14.55065 -7.45795,7.42962 -13.895476,14.15278 -14.305626,14.94037 -0.953636,1.83121 -0.944564,3.41941 0.03048,5.3306 1.359183,2.66422 4.775471,3.79456 7.444536,2.46315 z M 85.176218,101.95794 c 0.679355,-0.34173 6.01138,-5.355946 11.848945,-11.142689 11.502867,-11.402713 11.815407,-11.625957 14.866357,-10.619041 0.72042,0.237758 4.56185,2.769773 8.53648,5.626691 l 7.22662,5.194398 4.11903,-3.964383 c 2.26545,-2.180419 4.09054,-4.126698 4.05574,-4.325084 -0.0848,-0.484225 -24.08039,-17.093646 -25.08488,-17.363482 -1.25795,-0.337929 -3.15752,-0.256809 -4.33482,0.185128 -1.43363,0.538168 -27.751225,26.772653 -28.710537,28.619883 -0.951589,1.832366 -0.941902,3.420584 0.03252,5.330603 1.360628,2.667046 4.782725,3.796926 7.444555,2.457976 z M 168.50804,78.353298 c 2.25469,-0.997347 4.78083,-3.517182 5.83555,-5.820951 1.14115,-2.492571 1.14115,-6.8855 0,-9.378071 -1.05013,-2.293747 -3.56542,-4.809046 -5.85917,-5.859169 -2.49257,-1.141151 -6.8855,-1.141151 -9.37807,0 -4.95791,2.269824 -7.77125,7.965951 -6.51691,13.194657 1.67017,6.962069 9.36427,10.762827 15.9186,7.863534 z M 22.095294,124.90386 c -1.658509,-0.96171 -3.033037,-3.20798 -3.033037,-4.95662 0,-1.7761 1.393515,-4.01889 3.089198,-4.97191 1.415203,-0.7954 1.877844,-0.81742 17.173437,-0.81742 15.295595,0 15.758237,0.022 17.17344,0.81742 1.695684,0.95302 3.0892,3.19581 3.0892,4.97191 0,1.77609 -1.393516,4.01888 -3.0892,4.97191 -1.416204,0.79596 -1.868407,0.81718 -17.225988,0.80854 -15.340015,-0.008 -15.810066,-0.0312 -17.17705,-0.82383 z M 9.744735,101.74656 c -1.658511,-0.9617 -3.033039,-3.20797 -3.033039,-4.956624 0,-1.776103 1.3935151,-4.018896 3.0892,-4.971912 1.416787,-0.796291 1.870682,-0.817412 17.559393,-0.817412 15.688709,0 16.142605,0.02115 17.559393,0.817412 1.695683,0.953016 3.089198,3.195809 3.089198,4.971912 0,1.776093 -1.393515,4.018884 -3.089198,4.971924 -1.417759,0.79682 -1.861262,0.81719 -17.611944,0.80854 C 11.574955,102.5624 11.11323,102.54 9.744735,101.74656 Z M 22.095294,78.589261 c -1.658509,-0.961709 -3.033037,-3.207974 -3.033037,-4.956624 0,-1.776103 1.393515,-4.018897 3.089198,-4.971913 1.415203,-0.795399 1.877844,-0.817412 17.173437,-0.817412 15.295595,0 15.758237,0.02203 17.17344,0.817412 1.695684,0.953016 3.0892,3.19581 3.0892,4.971913 0,1.776088 -1.393516,4.018882 -3.0892,4.971912 -1.416204,0.795955 -1.868407,0.81718 -17.225988,0.808544 -15.340015,-0.0088 -15.810066,-0.03121 -17.17705,-0.823832 z"
       id="path1" /></g></svg>
